# xmcd
#
# Track frame offsets:
#       150
#       12328
#       24773
#       45775
#       56858
#       69315
#       80623
#       94775
#       106728
#       120195
#
# Disc length: 1787 seconds
#
# Revision: 7
# Processed by: cddbd v1.5.2PL0 Copyright (c) Steve Scherf et al.
# Submitted via: FreeDbEdit v0.1
#
DISCID=6806f90a
DTITLE=Various Artist - A Country Christmas
DYEAR=1994
DGENRE=Christmas
TTITLE0=Dwight Yoakam - Santa Claus Is Back in Town
TTITLE1=George Strait - Away in a Manger
TTITLE2=Vince Gill - Do You Hear What I Hear
TTITLE3=Emmylou Harris - Light of the Stable
TTITLE4=Kenny Rogers - The First Noel
TTITLE5=Trvis Tritt - Santa Looks a Lot Like Daddy
TTITLE6=Lorrie Morgan - Sleigh Ride
TTITLE7=Randy Travis - Pretty Paper
TTITLE8=The Judds - Silver Bells
TTITLE9=Sawyer Brown - Please Come Home for Christmas
EXTD=YEAR: 1994
EXTT0=
EXTT1=
EXTT2=
EXTT3=
EXTT4=
EXTT5=
EXTT6=
EXTT7=
EXTT8=
EXTT9=
PLAYORDER=
